<?xml version="1.0" encoding="UTF-8" standalone="no"?>
<svg width="89px" height="29px" viewBox="0 0 89 29" version="1.1" xmlns="http://www.w3.org/2000/svg" xmlns:xlink="http://www.w3.org/1999/xlink" xmlns:sketch="http://www.bohemiancoding.com/sketch/ns">
    <!-- Generator: Sketch 3.1 (8751) - http://www.bohemiancoding.com/sketch -->
    <title>uts_logo_bb</title>
    <desc>Created with Sketch.</desc>
    <defs></defs>
    <g id="Page-1" stroke="none" stroke-width="1" fill="none" fill-rule="evenodd" sketch:type="MSPage">
        <g id="uts_logo_bb" sketch:type="MSLayerGroup" transform="translate(1.000000, 0.000000)" fill="#FFFFFF">
            <path d="M-6.9388939e-18,11.9625 L3.24590164,11.9625 L3.24590164,13.775 L4.65245902,15.0075 L2.81311475,16.78375 L1.44262295,15.225 L5.11396481e-15,15.225 L5.11396481e-15,17.7625 L1.40655738,18.88625 L6.78032787,13.66625 C7.39344262,13.08625 7.60983607,12.615 8.72786885,12.615 C9.73770492,12.615 10.2065574,13.23125 10.2065574,13.23125 L11.9737705,14.97125 L10.0983607,16.82 L8.69180328,15.4425 L3.24590164,20.735 C3.24590164,20.735 2.66885246,21.75 1.40655738,21.75 C0.757377049,21.75 0.252459016,21.2425 -0.0360655738,21.025 L-0.0360655738,29 L7.93442623,29 L5.48196721,26.4625 L7.2852459,24.68625 L8.6557377,26.0275 L10.0262295,24.68625 L11.8655738,26.4625 L9.41311475,29 L17.2393443,29 L17.2393443,21.025 C16.9868852,21.27875 16.5180328,21.78625 15.9770492,21.78625 C15.0393443,21.78625 14.3901639,20.98875 14.3901639,20.98875 L12.695082,19.3575 L14.5704918,17.50875 L15.9409836,18.85 L17.3114754,17.7625 L17.3114754,15.225 L16.2295082,15.225 L9.99016393,21.27875 C9.99016393,21.27875 9.59344262,21.8225 8.69180328,21.8225 C7.89836066,21.8225 7.46557377,21.315 7.46557377,21.315 L5.51803279,19.39375 L7.32131148,17.6175 L8.72786885,18.95875 L14.0655738,13.4125 L14.0655738,11.9625 L17.3114754,11.9625 L17.3114754,0 L-6.9388939e-18,0 L-6.9388939e-18,11.9625 L-6.9388939e-18,11.9625 Z M10.9639344,21.13375 L12.3344262,22.475 L13.704918,21.13375 L15.5081967,22.91 L13.8852459,24.505 C13.8852459,24.505 13.1639344,25.33875 12.3704918,25.33875 C11.4327869,25.33875 10.7836066,24.54125 10.7836066,24.54125 L9.12459016,22.91 L10.9639344,21.13375 L10.9639344,21.13375 Z M6.4557377,21.13375 L8.25901639,22.91 L6.63606557,24.505 C6.63606557,24.505 5.9147541,25.33875 5.12131148,25.33875 C4.18360656,25.33875 3.53442623,24.54125 3.53442623,24.54125 L1.87540984,22.91 L3.67868852,21.13375 L5.04918033,22.475 L6.4557377,21.13375 L6.4557377,21.13375 Z M8.69180328,1.12375 L9.05245902,1.45 L11.1442623,3.48 L8.69180328,5.83625 L6.23934426,3.48 L8.69180328,1.12375 L8.69180328,1.12375 Z M4.47213115,5.25625 L5.7704918,6.525 L11.5409836,6.525 L12.947541,5.25625 L15.4,7.6125 L12.947541,9.96875 L11.6131148,8.66375 L10.1344262,8.66375 L10.0983607,12.325 C10.0983607,12.325 9.6295082,12.1075 8.72786885,12.1075 C7.82622951,12.1075 7.21311475,12.325 7.21311475,12.325 L7.21311475,8.7 L5.84262295,8.7 L4.50819672,10.005 L2.09180328,7.64875 L4.47213115,5.25625 L4.47213115,5.25625 Z M37.5081967,18.85 C37.5081967,22.6925 35.0557377,25.085 31.5213115,25.085 C27.9868852,25.085 25.6065574,22.6925 25.6065574,18.85 L25.6065574,0 L21.2786885,0 L21.2786885,18.85 C21.2786885,24.795 25.7868852,29 31.5213115,29 C37.2557377,29 41.8360656,24.795 41.8360656,18.85 L41.8360656,0 L37.5081967,0 L37.5081967,18.85 L37.5081967,18.85 Z M46.1639344,3.9875 L53.7377049,3.9875 L53.7377049,29 L58.0655738,29 L58.0655738,3.9875 L65.6393443,3.9875 L65.6393443,0 L46.1639344,0 L46.1639344,3.9875 L46.1639344,3.9875 Z M85.7278689,14.79 C84.5377049,13.7025 83.095082,13.05 80.4983607,12.65125 L77.3245902,12.18 C76.0262295,11.99875 74.9081967,11.49125 74.1868852,10.875 C73.4295082,10.18625 73.1409836,9.28 73.1409836,8.22875 C73.1409836,5.69125 74.9442623,3.77 78.2262295,3.77 C80.5704918,3.77 82.5901639,4.2775 84.3213115,5.98125 L87.0262295,3.2625 C84.6459016,0.97875 82.0491803,0.03625 78.3704918,0.03625 C72.5639344,0.03625 69.0295082,3.44375 69.0295082,8.41 C69.0295082,10.73 69.6786885,12.5425 71.0852459,13.8475 C72.3114754,15.0075 74.1147541,15.805 76.3868852,16.13125 L79.6688525,16.6025 C81.3278689,16.85625 82.0131148,17.11 82.7344262,17.79875 C83.4918033,18.4875 83.8163934,19.53875 83.8163934,20.77125 C83.8163934,23.52625 81.6885246,25.12125 78.0459016,25.12125 C75.1967213,25.12125 72.9606557,24.46875 70.904918,22.4025 L68.0918033,25.23 C70.7606557,27.985 73.7901639,29 77.9737705,29 C83.8163934,29 88,25.8825 88,20.62625 C88,18.1975 87.242623,16.13125 85.7278689,14.79 L85.7278689,14.79 Z" id="Shape" sketch:type="MSShapeGroup"></path>
        </g>
    </g>
</svg>